<?xml version="1.0" encoding="UTF-8" standalone="no"?>
<!DOCTYPE svg PUBLIC "-//W3C//DTD SVG 1.1//EN" "http://www.w3.org/Graphics/SVG/1.1/DTD/svg11.dtd">
<svg width="100%" height="100%" viewBox="0 0 1080 1080" version="1.1" xmlns="http://www.w3.org/2000/svg" xmlns:xlink="http://www.w3.org/1999/xlink" xml:space="preserve" xmlns:serif="http://www.serif.com/" style="fill-rule:evenodd;clip-rule:evenodd;stroke-linejoin:round;stroke-miterlimit:2;">
    <g transform="matrix(1,0,0,1,-4618.62,0)">
        <g id="fwd" transform="matrix(1,0,0,1,4618.62,0)">
            <rect x="0" y="0" width="1080" height="1080" style="fill:none;"/>
            <g id="share-fat-thin.svg" transform="matrix(4.31766,0,0,4.31766,-32.5221,47.3583)">
                <path d="M234.83,109.17L154.83,29.17C154.08,28.419 153.061,27.997 152,27.997C149.806,27.997 148,29.803 148,31.997C148,31.998 148,31.999 148,32L148,76.09C94,78.53 27.57,129.64 20.06,195.09C19.629,198.511 21.495,201.835 24.64,203.25C25.706,203.755 26.871,204.018 28.05,204.02C30.25,204.014 32.35,203.089 33.84,201.47C45.37,189.2 87.13,149.74 148,148.07L148,192C148,192.001 148,192.002 148,192.003C148,194.197 149.806,196.003 152,196.003C153.061,196.003 154.08,195.581 154.83,194.83L234.83,114.83C235.581,114.08 236.003,113.061 236.003,112C236.003,110.939 235.581,109.92 234.83,109.17ZM156,182.33L156,144C156,141.806 154.194,140 152,140C124.61,140 97.92,147.17 72.66,161.3C56.125,170.573 41.071,182.269 28,196L30.92,198.74L28,196C31.36,166.79 47.55,138.52 73.6,116.43C97.53,96.11 126.83,84 152,84C154.194,84 156,82.194 156,80L156,41.66L226.34,112L156,182.33Z" style="fill-rule:nonzero;"/>
            </g>
            <g id="caret-right-thin.svg" transform="matrix(4.31766,0,0,4.31766,302.808,-21.7282)">
                <path d="M178.83,130.83L98.83,210.83C98.08,211.58 97.061,212.002 96,212.002C93.804,212.002 91.998,210.196 91.998,208C91.998,206.939 92.42,205.92 93.17,205.17L170.34,128L93.17,50.83C92.42,50.08 91.998,49.061 91.998,48C91.998,45.804 93.804,43.998 96,43.998C97.061,43.998 98.08,44.42 98.83,45.17L178.83,125.17C179.581,125.92 180.003,126.939 180.003,128C180.003,129.061 179.581,130.08 178.83,130.83Z" style="fill-rule:nonzero;"/>
            </g>
        </g>
    </g>
</svg>
