<?xml version="1.0" encoding="UTF-8" standalone="no"?>
<!DOCTYPE svg PUBLIC "-//W3C//DTD SVG 1.1//EN" "http://www.w3.org/Graphics/SVG/1.1/DTD/svg11.dtd">
<svg width="100%" height="100%" viewBox="0 0 1080 1080" version="1.1" xmlns="http://www.w3.org/2000/svg" xmlns:xlink="http://www.w3.org/1999/xlink" xml:space="preserve" xmlns:serif="http://www.serif.com/" style="fill-rule:evenodd;clip-rule:evenodd;stroke-linejoin:round;stroke-miterlimit:2;">
    <g transform="matrix(1,0,0,1,-1153.28,0)">
        <g id="search" transform="matrix(1,0,0,1,1153.28,0)">
            <rect x="0" y="0" width="1080" height="1080" style="fill:none;"/>
            <g id="magnifying-glass-thin.svg" transform="matrix(3.23885,0,0,3.23885,125.748,125.748)">
                <path d="M226.83,221.17L174.13,168.47C188.198,152.994 196,132.814 196,111.9C196,65.764 158.036,27.8 111.9,27.8C65.764,27.8 27.8,65.764 27.8,111.9C27.8,158.036 65.764,196 111.9,196C132.814,196 152.994,188.198 168.47,174.13L221.17,226.83C221.92,227.58 222.939,228.002 224,228.002C226.196,228.002 228.002,226.196 228.002,224C228.002,222.939 227.58,221.92 226.83,221.17ZM36,112C36,70.308 70.308,36 112,36C153.692,36 188,70.308 188,112C188,153.692 153.692,188 112,188C70.324,187.956 36.044,153.676 36,112Z" style="fill-rule:nonzero;"/>
            </g>
        </g>
    </g>
</svg>
