<?xml version="1.0" encoding="UTF-8" standalone="no"?>
<!DOCTYPE svg PUBLIC "-//W3C//DTD SVG 1.1//EN" "http://www.w3.org/Graphics/SVG/1.1/DTD/svg11.dtd">
<svg width="100%" height="100%" viewBox="0 0 1080 1080" version="1.1" xmlns="http://www.w3.org/2000/svg" xmlns:xlink="http://www.w3.org/1999/xlink" xml:space="preserve" xmlns:serif="http://www.serif.com/" style="fill-rule:evenodd;clip-rule:evenodd;stroke-linejoin:round;stroke-miterlimit:2;">
    <g transform="matrix(1,0,0,1,-2306.55,-8.24288)">
        <g id="view-open" transform="matrix(1,0,0,1,2306.55,8.24288)">
            <rect x="0" y="0" width="1080" height="1080" style="fill:none;"/>
            <clipPath id="_clip1">
                <rect x="0" y="0" width="1080" height="1080"/>
            </clipPath>
            <g clip-path="url(#_clip1)">
                <g id="eye-thin.svg" transform="matrix(4.65528,0,0,4.65528,-55.8753,-55.8753)">
                    <path d="M243.66,126.38C243.32,125.62 235.14,107.49 216.83,89.18C199.87,72.22 170.7,52 128,52C85.3,52 56.13,72.22 39.17,89.18C20.86,107.49 12.68,125.62 12.34,126.38C11.89,127.416 11.89,128.594 12.34,129.63C12.68,130.4 20.86,148.52 39.17,166.83C56.17,183.83 85.31,204 128,204C170.69,204 199.87,183.79 216.83,166.83C235.14,148.52 243.32,130.4 243.66,129.63C244.11,128.594 244.11,127.416 243.66,126.38ZM210.96,161.38C187.89,184.38 159.96,196 127.96,196C95.96,196 68.07,184.35 44.96,161.38C35.127,151.574 26.857,140.316 20.44,128C26.869,115.682 35.153,104.423 45,94.62C68.11,71.65 96,60 128,60C160,60 187.89,71.65 211,94.62C220.846,104.424 229.129,115.682 235.56,128C229.131,140.318 220.847,151.576 211,161.38L210.96,161.38ZM128,84C103.862,84 84,103.862 84,128C84,152.138 103.862,172 128,172C152.138,172 172,152.138 172,128C171.973,103.873 152.127,84.027 128,84ZM128,164C108.251,164 92,147.749 92,128C92,108.251 108.251,92 128,92C147.749,92 164,108.251 164,128C164,147.749 147.749,164 128,164Z" style="fill-rule:nonzero;"/>
                </g>
            </g>
        </g>
    </g>
</svg>
